<svg width="652" height="163" viewBox="0 0 652 163" fill="none" xmlns="http://www.w3.org/2000/svg">
<path d="M389.239 83.5635H377.633C377.308 83.5635 377.044 83.8275 377.044 84.1531V142.8C377.044 143.125 377.308 143.389 377.633 143.389H389.239C389.564 143.389 389.828 143.125 389.828 142.8V84.1531C389.828 83.8275 389.564 83.5635 389.239 83.5635Z" fill="white"/>
<path d="M361.192 101.251C357.313 98.644 352.162 97.2166 346.67 97.2166C335.313 97.2166 326.904 103.019 326.004 111.211C325.973 111.552 326.252 111.863 326.594 111.863H338.044C338.261 111.863 338.447 111.739 338.571 111.552C339.874 109.256 342.636 108.108 346.949 108.108C352.504 108.108 355.451 110.001 355.451 113.538V115.121C355.451 115.276 355.327 115.431 355.141 115.431H342.884C331.124 115.431 324.918 120.303 324.918 129.488C324.918 140.224 333.855 144.072 342.202 144.072C349.432 144.072 353.683 140.969 354.955 139.883C355.141 139.728 355.451 139.883 355.451 140.1V142.769C355.451 143.11 355.731 143.358 356.041 143.358H366.932C367.274 143.358 367.522 143.079 367.522 142.769V112.08C367.522 107.829 365.257 103.95 361.192 101.219V101.251ZM343.195 133.584C339.874 133.584 337.982 132.28 337.671 129.798C337.516 128.588 337.826 127.533 338.571 126.695C339.781 125.33 342.109 124.585 345.149 124.585H355.11C355.296 124.585 355.42 124.74 355.42 124.926C354.986 130.046 348.656 133.615 343.226 133.615L343.195 133.584Z" fill="white"/>
<path d="M315.452 97.9924H303.878C303.537 97.9924 303.289 98.2717 303.289 98.582V100.971C303.289 101.22 303.01 101.375 302.792 101.22C299.565 98.6751 295.531 97.3097 291.156 97.2477C291.063 97.2477 290.939 97.2477 290.846 97.2477C284.919 97.2477 279.458 99.4508 275.393 103.454C271.08 107.705 268.69 113.631 268.69 120.117C268.69 133.149 278.341 142.986 291.156 142.986C295.686 142.986 299.596 141.807 302.823 139.448C303.009 139.293 303.289 139.448 303.289 139.697V140.876C303.289 147.361 299.627 151.054 293.266 151.054C290.194 151.054 286.253 150.216 284.081 146.461C283.926 146.182 283.616 146.027 283.306 146.027H271.638C271.235 146.027 270.956 146.399 271.049 146.802C274.617 158.687 284.826 163 293.421 163C306.547 163 316.042 153.691 316.042 140.876V98.582C316.042 98.2406 315.763 97.9924 315.452 97.9924ZM292.335 131.567C285.881 131.567 280.637 126.416 280.637 120.117C280.637 113.818 285.881 108.667 292.335 108.667C298.789 108.667 304.127 113.818 304.127 120.117C304.127 126.416 298.727 131.567 292.335 131.567Z" fill="white"/>
<path d="M261.954 115.897C259.689 105.067 250.07 97.2167 239.085 97.2167C226.177 97.2167 215.688 107.736 215.688 120.706C215.688 133.677 226.177 144.103 239.085 144.103C246.377 144.103 255.5 140.565 259.813 133.739C260.03 133.398 259.844 132.963 259.472 132.839L249.046 129.86C248.797 129.798 248.518 129.86 248.27 129.984C245.756 131.722 242.436 132.746 239.085 132.746C233.872 132.746 230.024 130.264 228.504 125.919C228.442 125.733 228.566 125.516 228.783 125.516H261.52C261.799 125.516 262.047 125.33 262.109 125.05C262.73 122.165 262.699 119 261.954 115.897ZM249.077 115.71H228.845C228.628 115.71 228.473 115.493 228.566 115.307C229.9 112.049 233.344 108.574 238.992 108.574C244.639 108.574 248.022 112.049 249.356 115.307C249.449 115.493 249.294 115.71 249.077 115.71Z" fill="white"/>
<path d="M183.202 130.853V84.1841C183.202 83.8428 182.923 83.5945 182.613 83.5945H170.604C170.263 83.5945 170.015 83.8738 170.015 84.1841V142.831C170.015 143.172 170.294 143.42 170.604 143.42H210.26C210.602 143.42 210.85 143.141 210.85 142.831V131.753C210.85 131.412 210.571 131.163 210.26 131.163H183.513C183.357 131.163 183.202 131.039 183.202 130.853Z" fill="white"/>
<path d="M620.01 25.1032C616.783 21.0693 611.787 18.649 606.636 18.649C602.757 18.649 599.313 20.0143 596.086 22.807C595.9 22.9621 595.589 22.838 595.589 22.5898V20.0143C595.589 19.673 595.31 19.4247 595 19.4247H583.426C583.084 19.4247 582.836 19.704 582.836 20.0143V64.2319C582.836 64.5732 583.115 64.8214 583.426 64.8214H595C595.341 64.8214 595.589 64.5422 595.589 64.2319V40.9284C595.589 36.9566 596.706 30.3162 604.091 30.3162C610.142 30.3162 611.042 35.9947 611.042 39.408V64.2319C611.042 64.5732 611.321 64.8214 611.632 64.8214H623.206C623.547 64.8214 623.795 64.5422 623.795 64.2319V39.0666C624.199 35.0638 625.999 30.3162 632.204 30.3162C638.41 30.3162 639.155 35.9947 639.155 39.408V64.2319C639.155 64.5732 639.434 64.8214 639.745 64.8214H651.319C651.66 64.8214 651.908 64.5422 651.908 64.2319V36.7084C651.908 29.8197 648.961 25.5997 646.478 23.2724C643.344 20.3556 639.062 18.649 634.718 18.649C629.567 18.649 624.075 21.1314 620.382 25.1032C620.258 25.2273 620.041 25.2273 619.917 25.1032H620.01Z" fill="white"/>
<path d="M559.683 61.6564V64.2319C559.683 64.5732 559.962 64.8215 560.273 64.8215H571.847C572.188 64.8215 572.436 64.5422 572.436 64.2319V20.0143C572.436 19.673 572.157 19.4247 571.847 19.4247H560.273C559.931 19.4247 559.683 19.704 559.683 20.0143V42.8833C559.683 49.2445 555.68 53.6507 549.909 53.6507C544.882 53.6507 541.251 49.772 541.251 44.4038V20.0143C541.251 19.673 540.972 19.4247 540.662 19.4247H529.088C528.746 19.4247 528.498 19.704 528.498 20.0143V47.5378C528.498 52.8749 530.484 57.4363 534.239 60.7876C537.714 63.8906 542.399 65.5972 547.395 65.5972C553.043 65.5972 556.921 63.363 559.218 61.4392C559.404 61.284 559.714 61.4392 559.714 61.6564H559.683Z" fill="white"/>
<path d="M479.967 8.03675L462.808 26.3133C462.653 26.4685 462.56 26.6857 462.56 26.9339V29.044C462.56 29.3853 462.839 29.6335 463.149 29.6335H470.503C470.658 29.6335 470.813 29.7577 470.813 29.9438V49.5858C470.813 55.1711 472.799 59.6084 476.585 62.4321C478.478 63.8595 480.805 64.8525 483.443 65.349C484.839 65.6282 486.328 65.7523 487.911 65.7523C490.611 65.7523 493.496 65.349 496.444 64.5111C496.848 64.4181 497.096 64.0457 497.096 63.6423V52.7818C497.096 52.3785 496.692 52.0682 496.289 52.2233C491.479 53.961 487.446 54.0541 485.149 52.4715C484.063 51.7268 483.443 50.6408 483.443 49.4616V29.9128C483.443 29.7577 483.567 29.6025 483.753 29.6025H505.474C505.629 29.6025 505.784 29.7266 505.784 29.9128V64.2008C505.784 64.5422 506.063 64.7904 506.374 64.7904H517.948C518.289 64.7904 518.537 64.5111 518.537 64.2008V20.0143C518.537 19.673 518.258 19.4247 517.948 19.4247H483.66C483.505 19.4247 483.35 19.3006 483.35 19.1454V8.34704C483.35 8.00572 483.07 7.75748 482.76 7.75748H480.65C480.402 7.75748 480.154 7.85057 479.998 8.03675H479.967Z" fill="white"/>
<path d="M517.916 0H506.032C505.706 0 505.442 0.263959 505.442 0.589568V11.6362C505.442 11.9618 505.706 12.2258 506.032 12.2258H517.916C518.242 12.2258 518.506 11.9618 518.506 11.6362V0.589568C518.506 0.263959 518.242 0 517.916 0Z" fill="white"/>
<path d="M442.613 23.9861V20.0143C442.613 19.673 442.333 19.4247 442.023 19.4247H430.449C430.108 19.4247 429.859 19.704 429.859 20.0143V64.2319C429.859 64.5732 430.139 64.8215 430.449 64.8215H442.023C442.364 64.8215 442.613 64.5422 442.613 64.2319V41.6111C442.613 38.415 444.009 35.7154 446.553 33.9467C448.446 32.6124 450.867 31.9298 453.38 31.9298H458.221C458.562 31.9298 458.81 31.6505 458.81 31.3402V19.7971C458.81 19.4868 458.593 19.2385 458.283 19.2075C450.091 17.9974 445.529 21.1934 443.14 24.1723C442.954 24.3895 442.613 24.2654 442.613 23.9861Z" fill="white"/>
<path d="M415.802 25.5686C411.365 21.1003 405.5 18.649 399.294 18.649C386.386 18.649 375.897 29.1371 375.897 42.0455C375.897 48.2205 378.349 54.1161 382.786 58.5844C387.223 63.0527 393.088 65.5351 399.294 65.5351C412.202 65.5351 422.691 55.016 422.691 42.0455C422.691 35.8706 420.239 30.0059 415.802 25.5686ZM399.294 53.8369C392.964 53.8369 387.844 48.5308 387.844 42.0455C387.844 35.5603 392.995 30.3472 399.294 30.3472C405.593 30.3472 410.744 35.5913 410.744 42.0455C410.744 48.4997 405.593 53.8369 399.294 53.8369Z" fill="white"/>
<path d="M332.954 60.2554V49.0846C332.954 48.6192 333.482 48.3089 333.885 48.5881C337.453 50.8844 344.932 54.701 351.262 54.701C352.627 54.701 357.126 54.4838 357.126 51.7222C357.126 49.426 353.868 48.3399 346.98 46.8815C341.642 45.7334 337.826 44.1509 335.343 42.0719C332.706 39.8687 331.434 36.983 331.434 33.2594C331.434 24.602 338.881 19.0167 350.424 19.0167C357.468 19.0167 362.991 21.3439 367.49 23.7022C367.801 23.8573 367.987 24.1676 367.987 24.509V34.3454C367.987 34.8109 367.49 35.0901 367.087 34.8729C359.174 30.4977 352.844 30.0323 350.424 30.0323C346.918 30.0323 344.652 31.2735 344.652 33.1663C344.652 35.2763 347.631 35.8969 351.727 36.7658C353.03 37.045 354.52 37.3553 356.009 37.7587C365.598 40.3032 370.252 44.9576 370.252 51.9704C370.252 62.2103 360.447 65.8718 351.262 65.8718C345.149 65.8718 339.315 64.2893 333.42 61.0311C333.14 60.876 332.954 60.5657 332.954 60.2554Z" fill="white"/>
<path d="M293.047 22.5898V20.0143C293.047 19.673 292.768 19.4247 292.458 19.4247H280.883C280.542 19.4247 280.294 19.704 280.294 20.0143V64.2319C280.294 64.5732 280.573 64.8214 280.883 64.8214H292.458C292.799 64.8214 293.047 64.5422 293.047 64.2319V41.3628C293.047 35.0017 297.05 30.5955 302.822 30.5955C307.848 30.5955 311.479 34.4742 311.479 39.8424V64.2319C311.479 64.5732 311.758 64.8214 312.069 64.8214H323.643C323.984 64.8214 324.232 64.5422 324.232 64.2319V36.7084C324.232 31.3712 322.246 26.8098 318.492 23.4586C315.016 20.3556 310.331 18.649 305.335 18.649C299.688 18.649 295.809 20.8831 293.513 22.807C293.326 22.9621 293.016 22.807 293.016 22.5898H293.047Z" fill="white"/>
<path d="M266.236 25.5686C261.799 21.1003 255.935 18.649 249.729 18.649C236.82 18.649 226.332 29.1371 226.332 42.0455C226.332 48.2205 228.783 54.1161 233.221 58.5844C237.658 63.0527 243.523 65.5351 249.729 65.5351C262.637 65.5351 273.125 55.016 273.125 42.0455C273.125 35.8706 270.674 30.0059 266.236 25.5686ZM249.729 53.8369C243.398 53.8369 238.279 48.5308 238.279 42.0455C238.279 35.5603 243.43 30.3472 249.729 30.3472C256.028 30.3472 261.179 35.5913 261.179 42.0455C261.179 48.4997 256.028 53.8369 249.729 53.8369Z" fill="white"/>
<path d="M220.219 47.1964L208.614 44.0624C208.335 44.0004 208.055 44.1245 207.931 44.3417C204.921 49.9271 199.957 52.8749 193.595 52.8749C183.666 52.8749 176.188 45.1795 176.188 34.9707C176.188 24.7618 183.666 16.9733 193.595 16.9733C199.832 16.9733 205.014 20.1384 208.18 25.9099C208.304 26.1582 208.614 26.2823 208.862 26.1892L220.312 22.9C220.654 22.807 220.84 22.4036 220.685 22.0622C218.233 16.8492 214.572 12.474 210.041 9.37101C205.232 6.05081 199.522 4.31314 193.595 4.31314C176.715 4.31314 163 18.0284 163 34.9086C163 51.7889 176.715 65.411 193.595 65.411C205.201 65.411 215.503 58.7396 220.591 47.9412C220.747 47.5998 220.591 47.1964 220.219 47.1034V47.1964Z" fill="white"/>
<path d="M53.961 143.42H126.788C128.774 143.42 130.388 141.807 130.388 139.821V103.112C130.388 101.126 128.774 99.5129 126.788 99.5129H51.9751C47.1965 99.5129 42.6351 97.62 39.2528 94.2378C35.8705 90.8555 33.9777 86.2941 33.9777 81.5155V64.4491C33.9777 62.4632 32.3642 60.8496 30.3783 60.8496H3.59947C1.61355 60.8496 0 62.4632 0 64.4491V89.4281C0 103.733 5.67847 117.479 15.7942 127.595C25.91 137.711 39.6562 143.389 53.961 143.389V143.42Z" fill="#2A7DE1"/>
<path d="M126.787 13.0015H41.5477C39.5598 13.0015 37.9482 14.6131 37.9482 16.601V53.3094C37.9482 55.2973 39.5598 56.9088 41.5477 56.9088H126.787C128.775 56.9088 130.386 55.2973 130.386 53.3094V16.601C130.386 14.6131 128.775 13.0015 126.787 13.0015Z" fill="#2A7DE1"/>
</svg>
